<?xml version="1.0" standalone="no"?>
<!DOCTYPE svg PUBLIC "-//W3C//DTD SVG 20010904//EN"
 "http://www.w3.org/TR/2001/REC-SVG-20010904/DTD/svg10.dtd">
<svg version="1.0" xmlns="http://www.w3.org/2000/svg"
 width="512.000000pt" height="512.000000pt" viewBox="0 0 512.000000 512.000000"
 preserveAspectRatio="xMidYMid meet">

<g transform="translate(0.000000,512.000000) scale(0.100000,-0.100000)"
fill="#000000" stroke="none">
<path d="M2025 5055 l-25 -24 0 -271 0 -271 25 -24 24 -25 511 0 511 0 24 25
25 24 0 271 0 271 -25 24 c-39 40 -68 32 -187 -46 l-108 -72 -108 72 c-59 39
-119 71 -132 71 -13 0 -73 -32 -132 -71 l-108 -72 -108 72 c-119 78 -148 86
-187 46z m645 -225 c60 -40 116 -70 130 -70 14 0 56 20 93 45 l67 45 0 -125 0
-125 -400 0 -400 0 0 125 0 125 67 -45 c37 -25 79 -45 93 -45 14 0 70 30 130
70 58 38 107 70 110 70 3 0 52 -32 110 -70z"/>
<path d="M2375 4302 c-149 -52 -163 -60 -212 -108 -110 -109 -111 -274 -3
-386 l48 -50 -37 -37 c-20 -20 -49 -51 -63 -70 l-26 -35 -56 50 c-30 27 -131
122 -225 212 -145 138 -174 162 -201 162 -41 0 -80 -39 -80 -80 0 -36 -2 -34
289 -311 l203 -194 -6 -60 c-3 -33 -11 -99 -18 -147 l-11 -87 -176 -56 c-243
-77 -255 -82 -278 -113 -12 -16 -143 -176 -292 -356 -294 -355 -297 -361 -246
-411 29 -30 74 -33 103 -7 11 9 141 164 290 343 l270 327 147 47 c81 25 149
44 151 42 2 -2 -4 -56 -13 -120 l-16 -116 -98 -31 c-53 -16 -101 -30 -106 -30
-5 0 -19 -10 -31 -23 -18 -19 -29 -81 -88 -494 -37 -260 -70 -476 -73 -481 -3
-4 -87 -73 -186 -151 -99 -79 -188 -152 -197 -163 -26 -29 -23 -74 7 -103 47
-48 64 -40 296 145 118 93 220 180 227 192 6 13 39 217 72 453 33 237 63 442
66 457 4 20 15 30 40 38 20 7 37 10 40 8 2 -3 -26 -209 -62 -459 -72 -501 -72
-517 -22 -612 35 -66 68 -97 142 -134 28 -14 53 -27 54 -28 2 -2 10 -61 18
-132 29 -261 108 -600 182 -781 122 -299 291 -426 460 -347 134 62 249 255
337 568 43 152 89 386 104 527 20 176 13 161 86 199 71 36 104 69 140 141 42
84 41 110 -29 599 -36 250 -64 456 -62 459 3 2 20 -1 40 -8 25 -8 36 -18 40
-38 3 -15 33 -220 66 -457 33 -236 66 -440 72 -452 7 -13 109 -99 227 -193
232 -185 249 -193 296 -145 30 29 33 74 8 103 -10 11 -99 84 -198 163 -99 78
-183 147 -186 151 -3 5 -36 221 -73 481 -50 349 -71 476 -83 489 -9 10 -67 34
-128 54 l-112 36 -16 116 c-10 63 -15 117 -13 119 2 2 70 -17 151 -42 l147
-47 270 -327 c149 -179 279 -334 290 -343 29 -26 74 -23 103 7 52 51 48 56
-250 417 -152 183 -286 345 -298 359 -12 14 -45 33 -72 42 -28 9 -122 39 -211
67 l-161 50 -11 88 c-7 48 -15 114 -18 147 l-6 60 198 189 c293 278 294 280
294 316 0 41 -39 80 -80 80 -27 0 -57 -25 -211 -172 -99 -95 -201 -191 -225
-212 l-46 -40 -26 35 c-14 19 -43 51 -64 71 l-39 38 36 32 c130 113 121 326
-17 431 -36 28 -338 138 -373 136 -11 0 -92 -26 -180 -57z m317 -152 c120 -42
155 -62 176 -101 20 -38 8 -97 -27 -133 l-31 -31 -250 0 -250 0 -31 31 c-53
54 -48 132 11 176 30 22 235 97 267 97 12 1 73 -17 135 -39z m-64 -442 c90
-23 172 -131 172 -228 0 -124 -116 -240 -240 -240 -63 0 -114 23 -165 75 -102
101 -102 229 0 331 69 69 135 87 233 62z m-430 -392 c42 -91 100 -149 190
-194 72 -35 81 -37 172 -37 91 0 100 2 172 37 90 45 148 103 190 194 16 35 32
64 35 64 3 0 3 -36 0 -80 -10 -152 -89 -270 -225 -338 -72 -35 -81 -37 -172
-37 -91 0 -100 2 -172 37 -136 68 -215 186 -225 338 -3 44 -3 80 0 80 3 0 19
-29 35 -64z m116 -496 c44 -21 100 -42 124 -46 l42 -7 0 -350 0 -350 -216
-289 c-131 -174 -223 -288 -233 -288 -9 0 -33 14 -53 31 -69 56 -70 28 36 774
53 369 96 673 96 677 0 5 28 -19 61 -52 42 -42 87 -73 143 -100z m791 -520
c82 -571 95 -681 86 -712 -12 -40 -71 -98 -100 -98 -13 0 -88 93 -235 288
l-216 289 0 349 0 349 53 13 c88 20 188 76 253 141 32 32 60 58 61 57 1 -1 45
-305 98 -676z m-502 -450 l37 -50 -80 0 -80 0 37 50 c20 28 40 50 43 50 3 0
23 -22 43 -50z m217 -290 l61 -80 -321 0 -321 0 61 80 61 80 199 0 199 0 61
-80z m134 -287 c-3 -27 -7 -63 -10 -80 l-5 -33 -379 0 -379 0 -5 33 c-3 17 -7
53 -10 80 l-6 47 400 0 400 0 -6 -47z m-53 -353 l-15 -80 -326 0 -326 0 -15
80 -16 80 357 0 357 0 -16 -80z m-61 -248 c0 -4 -11 -39 -23 -78 l-24 -69
-233 0 -233 0 -24 69 c-12 39 -23 74 -23 78 0 4 126 8 280 8 154 0 280 -4 280
-8z m-120 -318 c0 -13 -62 -94 -95 -122 -42 -38 -76 -41 -120 -11 -27 19 -105
117 -105 133 0 3 72 6 160 6 88 0 160 -3 160 -6z"/>
</g>
</svg>
